<?xml version="1.0" encoding="UTF-8"?>
<svg id="uuid-8744a900-c062-433e-9112-78cb191fa23a" data-name="Calque 1" xmlns="http://www.w3.org/2000/svg" viewBox="0 0 934.13175 511.13379">
  <defs>
    <style>
      .uuid-7d3a5226-3bc3-44cd-b0c6-a1601e8f9efc {
        fill: #fff;
      }

      .uuid-6ce979f2-967b-4dfe-b17e-f09a930acbd3 {
        fill: #174b25;
      }

      .uuid-bb7d1f5a-4f45-461b-bc9c-5efa339cb9c6 {
        fill: #225d2e;
      }

      .uuid-da7d98ff-6e51-40fc-893a-131822baa595 {
        fill: #ffc857;
      }
    </style>
  </defs>
  <path class="uuid-7d3a5226-3bc3-44cd-b0c6-a1601e8f9efc" d="M847.01163,310.73145c-.11035,0-.2207.00098-.33008.00195-11.29639.12451-21.72754,1.94775-31.15674,5.34473v-.99609c9.98633-4.87012,16.86865-15.11914,16.86865-26.97754v-62.85938h39.1582c10.05469,0,19.44043-5.03711,24.99902-13.41504l24.03223-36.22559c8.99121-12.7168,13.54883-26.7666,13.54883-41.76758,0-17.17383-6.25098-33.07422-17.60156-44.77246-11.58789-11.94434-27.46387-18.52246-44.70117-18.52246-35.30762,0-62.96484,27.80273-62.96484,63.29492,0,2.1748.10938,4.33105.31934,6.46289-14.22363-14.28174-34.18018-22.59766-57.63379-22.59766-.11914,0-.2373.00098-.35645.00195-11.70605.13965-22.57129,2.08594-32.37598,5.71777-4.47363-2.65039-9.69434-4.17188-15.27148-4.17188h-39.74707c-16.56836,0-30,13.43164-30,30v24.94531c-4.34424-7.30518-11.65039-12.50879-20.07715-14.14062-3.12207-5.60547-7.99316-10.12012-13.96289-12.79004-3.53418-1.58008-7.29395-2.44238-11.07324-2.58984-.4248-4.46973-1.85254-8.85352-4.26562-12.80273-5.30664-8.68555-14.65527-14.08691-24.8291-14.34863l-.60742-.01562c-1.23047-.03418-2.46289-.06348-3.71484-.06348-30.88135,0-58.04785,8.23389-78.70459,23.79102-3.50732-12.67529-15.11719-21.98535-28.90869-21.98535h-39.48828c-13.16699,0-24.35156,8.48145-28.39062,20.2793-4.03809-11.79785-15.22266-20.2793-28.38965-20.2793h-39.74707c-4.23145,0-8.2561.88086-11.90698,2.46143-12.10425-27.78955-41.91504-44.77881-81.46216-44.77881-4.45703,0-9.08496.21094-13.76074.62793l-20.85547,1.86328c-.00391-.1416-.00781-.2832-.0127-.42676-.21387-6.08203-1.11719-11.69629-2.70312-16.83203.56445-1.4502,1.06738-2.93359,1.50977-4.44824,5.13867-17.60742-.05859-35.66113-13.58984-47.13672-8.0625-6.82227-18.45801-10.58008-29.26953-10.58008-7.17676,0-14.43945,1.67578-21.00391,4.8457-5.70605,2.75488-10.37207,5.88379-14.14062,8.41113-2.77539,1.86328-5.39648,3.62402-7.17773,4.31445-4.68457,1.82129-10.08887,2.74512-16.06348,2.74512-10.25,0-22.34668-2.71582-35.01953-7.87012l-2.63965-1.06934c-3.62891-1.4707-7.45215-2.19531-11.26172-2.19531-5.69043,0-11.34766,1.61914-16.2627,4.78906C7.81339,19.26367,2.69718,28.21875,2.3046,37.97559L.02433,94.64551c-.4375,10.87891,5.05273,21.1416,14.34668,26.81348,0,0,1.07227.6543,1.1084.67578,2.93945,1.77734,5.75293,3.19727,8.01465,4.33789l1.27734.63477c1.39844.7041,2.88184,1.41797,4.42578,2.1582l.2002.09668c2.63086,1.26758,7.06445,3.40332,9.66113,5.02441,5.54883,14.60938,14.91895,27.28613,26.70996,36.03125l.08789.06445c1.63379,1.20215,3.32422,2.33496,5.02441,3.36523.11719.07031.23438.14062.35254.20996,1.9209,1.13379,5.80859,3.2832,10.45605,5.07031,6.7832,2.6123,13.52637,3.80859,18.72461,4.3457l10.18457,113.97754c.51123,5.72119,2.60156,10.91943,5.7959,15.21338-7.50439,5.45312-12.3877,14.29395-12.3877,24.27979v89.49219c0,.19092.01074.37891.0144.56885-5.94897,5.48193-9.67847,13.33594-9.67847,22.06299v32.05469c0,16.56836,13.43164,30,30,30h157.25195c16.56836,0,30-13.43164,30-30v-1.45166c.34912.35352.69482.70996,1.0498,1.05908,19.85352,19.5332,46.78809,30.29102,75.84082,30.29102,28.25684,0,57.54883-12.5083,78.89355-33.5752,2.68896,2.6084,5.5459,5.08838,8.57617,7.41797,20.79199,15.98438,48.21777,24.43262,79.31348,24.43262,30.62744,0,57.63525-8.26758,78.29248-23.8916,2.07422,14.54443,14.57422,25.72852,29.69189,25.72852h39.74512c13.61328,0,25.10938-9.06836,28.77734-21.49316,3.66699,12.4248,15.16309,21.49316,28.77637,21.49316h39.48828c13.61426,0,25.11133-9.06836,28.77734-21.49512,3.66699,12.42676,15.16309,21.49512,28.77734,21.49512h39.4873c16.56836,0,30-13.43164,30-30v-87.23535c0-48.96777-32.92578-83.16699-80.07031-83.16699Z"/>
  <g>
    <path class="uuid-6ce979f2-967b-4dfe-b17e-f09a930acbd3" d="M135.35021,127.2311c-1.89014-3.11987-5.52002-5.42993-10.44019-6.71997l2.65991,29.79004c2-1.14001,3.82007-2.65991,5.36011-4.67993,3.75-4.94006,5.79004-12.84009,2.42017-18.39014Z"/>
    <path class="uuid-bb7d1f5a-4f45-461b-bc9c-5efa339cb9c6" d="M289.4901,231.20119c-2.11011-23.65002-17.81006-39.85999-41.59009-42.14001,18.82007-6.87,29.29004-23.08997,27.56006-42.37-2.47998-27.76001-28.68994-42.78003-68.28003-39.25l-51.70996,4.62-27.41992,2.44995-3.65015.33008.51001,5.66992c4.92017,1.29004,8.55005,3.6001,10.44019,6.71997,3.36987,5.55005,1.32983,13.45007-2.42017,18.39014-1.54004,2.02002-3.36011,3.53992-5.36011,4.67993l12.91016,144.47998,85.6001-7.63989c41.63989-3.72009,66.16992-25.09009,63.40991-55.94006ZM167.98009,144.37124l40.10986-3.58008c15.40015-1.63989,25.29004,4.72998,26.40015,17.07007,1.11987,12.59998-7.46997,20.87988-22.88989,22.26001l-40.1001,3.57996-3.52002-39.32996ZM218.23009,254.41115l-40.1001,3.57996-3.81006-42.66992,40.1001-3.58008c19-1.95996,31.54004,4.96008,32.70996,18.07007,1.23999,13.88-9.86987,22.90002-28.8999,24.59998Z"/>
    <path class="uuid-bb7d1f5a-4f45-461b-bc9c-5efa339cb9c6" d="M361.71014,289.65186c20.905,0,36.90813-8.51723,46.45692-26.06663v24.51839h39.48771v-138.85406h-39.48771v68.65192c0,20.13197-11.61584,35.10151-30.71341,35.35894-16.00109,0-26.06649-10.58034-26.06649-28.13157v-75.87929h-39.74733v87.2347c0,32.77914,19.35866,53.1676,50.07031,53.1676Z"/>
    <path class="uuid-bb7d1f5a-4f45-461b-bc9c-5efa339cb9c6" d="M703.54598,219.70906c0-20.3894,11.87134-35.35895,31.74487-35.61734,17.03467,0,27.35742,10.84064,27.35742,28.38995v75.62195h39.74561v-87.23575c0-32.51981-19.87183-53.16663-50.84448-53.16663-21.6792.25836-38.19702,8.5173-48.00342,25.8092v-24.26089h-39.74707v138.85406h39.74707v-68.39456Z"/>
    <path class="uuid-da7d98ff-6e51-40fc-893a-131822baa595" d="M871.55253,195.2445h-40.06787l16.13623-38.80371c-5.68604-5.93945-8.75684-13.77441-8.75684-22.60352,0-18.98145,14.17236-33.2959,32.96582-33.2959,18.7168,0,32.30176,14.00293,32.30176,33.2959,0,8.91504-2.70654,17.01855-8.27393,24.77148l-24.30518,36.63574ZM853.96757,180.2445h9.53516l20.10547-30.29492c3.76855-5.21484,5.52344-10.33496,5.52344-16.1123,0-13.50391-9.32031-18.2959-17.30176-18.2959-10.57812,0-17.96582,7.52344-17.96582,18.2959,0,6.18555,2.39258,11.03125,7.11182,14.40234l4.85742,3.4707-11.86572,28.53418Z"/>
    <path class="uuid-bb7d1f5a-4f45-461b-bc9c-5efa339cb9c6" d="M390.15963,450.68076c-25.11129,0-44.57356-19.80741-44.57356-45.51377s19.46226-45.30134,44.57356-45.30134c13.60154,0,28.04106,7.58548,38.08534,19.17393l19.25176-23.59872c-14.43763-14.96008-36.61939-24.44231-57.75598-24.44231-44.36329,0-78.05457,32.02785-78.05457,74.59027,0,42.77414,33.06356,75.43249,76.79936,75.43249,21.34519,0,43.73556-10.32368,59.22169-26.33835l-19.46226-21.28085c-10.46316,10.53534-24.90126,17.27866-38.08534,17.27866Z"/>
    <path class="uuid-bb7d1f5a-4f45-461b-bc9c-5efa339cb9c6" d="M847.01202,340.73163c-23.48487.25838-41.03609,10.58129-50.06826,32.00312-6.71163-20.13102-23.48691-32.00312-46.97353-32.00312-20.90529.25838-37.16395,8.51723-46.97178,25.55082v-24.00258h-39.74528v138.85406h39.74528v-68.65287c0-20.13102,11.6135-35.10056,30.97069-35.35894,16.26042,0,26.5831,10.58224,26.5831,28.38995v75.62186h39.488v-68.65287c0-20.13102,11.61379-35.10056,30.71311-35.35894,16.51799,0,26.84097,10.58224,26.84097,28.38995v75.62186h39.48771v-87.23565c0-32.51981-19.35661-53.16665-50.07002-53.16665Z"/>
    <g>
      <polygon class="uuid-bb7d1f5a-4f45-461b-bc9c-5efa339cb9c6" points="192.56096 408.79371 154.20598 408.79371 154.20598 336.94417 134.00685 336.94417 134.00685 426.43678 192.56096 426.43678 192.56096 408.79371"/>
      <path class="uuid-bb7d1f5a-4f45-461b-bc9c-5efa339cb9c6" d="M230.76426,427.20396c9.33171,0,16.74792-3.83534,21.60571-10.61167v9.84449h19.56081v-68.78138h-19.56081v9.97165c-4.98556-6.9035-12.52981-10.7389-22.24511-10.7389-19.17749.12791-31.83372,14.06342-31.83372,34.90188,0,21.22266,12.91204,35.41392,32.47312,35.41392ZM235.36622,373.25256c9.33279,0,15.98075,6.77566,17.00374,16.74799v4.60251c-1.02299,9.97172-7.67094,16.74799-17.00374,16.74799-10.35606,0-17.25955-7.79858-17.38733-19.04959.12777-11.12249,7.15904-19.04891,17.38733-19.04891Z"/>
    </g>
    <rect class="uuid-da7d98ff-6e51-40fc-893a-131822baa595" x="124.34267" y="449.06803" width="157.25229" height="32.05501"/>
    <path class="uuid-da7d98ff-6e51-40fc-893a-131822baa595" d="M153.98009,88.5812c-.01001-.01001-.95996-1.35999-1.12988-3.09009.03979-.25.17993-.79993.22998-1.0199.27002-1.13.63989-2.66003.57983-4.42004-.32007-9.10999-2.78003-14.78003-8.32983-18.79004,3.33984-2.62988,6.61987-6.11987,8.31982-11.94995,1.80005-6.16992.23999-12.08997-4.16992-15.83008-4.67993-3.95996-11.67993-4.59985-17.8501-1.61987-3.79004,1.82996-7.17993,4.09998-10.45996,6.29993-4.02002,2.70007-8.17993,5.49011-13.03003,7.37-25.45996,9.90002-53.86987,2.59009-73.21997-5.28003l-2.63989-1.06995-2.28003,56.67004,1,.60999c2.05005,1.23999,4.20996,2.31995,6.29004,3.37l.86987.42993c1.33008.67004,2.75,1.3501,4.22998,2.06006,9.36011,4.51001,21.02002,10.12,23.73999,18.63,3.31006,10.31995,9.68994,19.56995,17.51001,25.37.91016.66992,1.8501,1.30005,2.79004,1.87.12012.06995,2.84009,1.71008,6.04004,2.94006,6.88013,2.6499,14.40991,2.76001,15.67993,2.76001h.16992c5.84009-.07007,13.30005-.17004,19.25-3.59009,2-1.14001,3.82007-2.65991,5.36011-4.67993,3.75-4.94006,5.79004-12.84009,2.42017-18.39014-1.89014-3.11987-5.52002-5.42993-10.44019-6.71997-1.67993-.43994-3.51001-.76001-5.47998-.94995-1.68994-.16992-2.91992-.14001-3.8999-.12-1.47998.03992-1.94019.03003-2.72998-.43005-3.67017-2.16992-4.05005-7.01001-2.53003-10.66992.84985-2.04004,3.56006-6.61011,10.31006-4.88,1.57983.41003,2.68994.95996,3.47998,1.75,1.02979,1.0199,1.27002,1.95996,1.65991,3.5199.25.96008.52002,2.05005,1.04004,3.31006.16992.39001.57983,1.32007,1.29004,2.46997l27.41992-2.44995c.61987-1.76001.91992-3.42993,1.15991-4.73999,1.17017-6.37-.06982-15.13-2.6499-18.73999ZM141.73009,110.30117c-.05005.08008-.09009.16003-.14014.22998-.30981-.75-.75977-1.96997-1.3999-3.93994-1.48999-4.64001-3.54004-10.98999-8.95996-14.43994-12.61011-8-24.73999-2.96008-31.16016,5.59985-6.65991,8.86011-8.08984,22.5,2.04004,31.45007,6.51001,5.73999,12.82007,5.18005,17,4.80994.65015-.05994,1.22021-.11987,1.72998-.17993,1.32007-.15002,2.14014-.22998,2.36011-.04004.40991.3501.65015,1.47998.3501,2.31006-.90015,2.47998-7.42017,2.94995-9.57007,3.10999-7.81006.57996-16.32007-1.87-24.66016-7.05994-6.41992-4.84009-8.62988-9.79004-11.17993-15.51001-2.30005-5.16016-4.8999-11.01001-11.13989-16.96008-5.62012-5.37-12.58008-9.33997-20.69995-11.82996l1.01001-28.39001c5.02979,1.54993,10.09985,2.92004,15.11987,4.04993,19,4.29004,40.83008,1.16003,59.90015-8.58997,1.77979-.92004,3.78979-2.30994,6.12988-3.93005,7.06006-4.8999,10.02002-6.23999,11.19995-6.38989.02002.03003.03003.06995.05005.12.12988.38.25,2.62-10.5,9.43005l-.18994.11987c-4.79004,3.03003-8.72998,4.83008-11.61011,6.15002-3.57983,1.63-5.73999,2.62-5.36987,4.90002.41992,2.52002,3.25,2.65991,7.93994,2.90002,5.46997.27991,13.54004.68994,17.26001,4.88-1.5-.19995-3-.3501-4.5-.44006-6.96997-.41003-13.97998.35999-20.8501,2.28003l-1.71997.47998.28003,1.77002c.19995,1.21997.66992,2.28992,1.38989,3.16003,2.19019,2.62988,5.77002,2.47998,8.38013,2.37.32007-.01001.61987-.02002.90991-.03003.17017,0,.33008-.01001.5-.01001,5.9502,0,12.41016,2.44006,16.20996,6.15002,1.62012,1.57007,2.86011,3.56006,3.80005,6.07996,1.3501,3.60999,2,11.84998.09009,15.39001Z"/>
    <path class="uuid-da7d98ff-6e51-40fc-893a-131822baa595" d="M641.57082,409.84312v-193.91395h.05069c-.00917-.31202-.03802-.61574-.05069-.9258v-1.38968h-.07604c-.19354-3.22053-.61255-6.34097-1.2099-9.37449-3.80644,2.56378-8.49569,3.98544-13.161,3.98544-4.97881,0-9.26363-2.17901-12.47303-5.49012-3.62471-3.43905-5.99241-8.29096-6.64137-13.22126-.86699.09717-1.73853.15137-2.60965.15137-8.93696,0-15.63948-7.01481-17.88801-15.01402-3.22447,1.5806-6.85509,2.44122-10.47396,2.44122-5.13274,0-9.52613-2.31768-12.76574-5.80263-4.60958-4.18809-7.31132-10.6294-7.14448-16.7416.07007-2.56793.67819-4.92321,1.6927-7.03434-1.17914-.03076-2.35311-.06983-3.55108-.06983-50.40789,0-84.64095,26.55213-86.57678,67.08872h-.07635v195.31095h-.01796c.0024.13379.01476.26343.01796.39698v2.86457h.13147c2.53638,39.67988,36.60321,66.19173,86.52165,66.19173,50.26264,0,84.53754-27.19497,86.2909-67.71642h.01064v-.23096c.02006-.50319.05863-.99856.06896-1.50589h-.06896ZM555.26928,447.03417c-23.19048,0-39.30668-14.48886-40.37551-35.95079v-195.19205c1.30605-21.17164,17.37482-35.41147,40.37551-35.41147,22.53807,0,38.50459,14.03084,40.02424,34.93392v196.1662h.01686c-1.29166,21.18653-17.32031,35.4542-40.04109,35.4542Z"/>
  </g>
</svg>